<svg version="1.0" xmlns="http://www.w3.org/2000/svg"
 width="456.000000pt" height="456.000000pt" viewBox="0 0 456.000000 456.000000"
 preserveAspectRatio="xMidYMid meet">

<g transform="translate(0.000000,456.000000) scale(0.100000,-0.100000)"
fill="#1c1e21" stroke="none">
<path d="M1300 3987 c-85 -43 -832 -1687 -1086 -2389 -109 -302 -135 -430
-100 -496 50 -96 293 -192 490 -192 41 0 87 5 101 12 27 12 30 20 40 103 18
144 288 851 414 1085 431 801 980 1450 1226 1450 74 0 113 -36 125 -116 4 -24
5 -44 3 -44 -2 0 -15 7 -28 16 -43 28 -47 10 -9 -38 33 -43 35 -50 27 -85 l-9
-37 -58 72 c-32 40 -62 72 -66 72 -4 0 -13 -6 -19 -14 -10 -12 -1 -29 50 -91
34 -42 68 -74 74 -71 10 3 10 -5 2 -36 -10 -41 -16 -43 -71 -22 -24 9 -19 -9
9 -36 14 -13 25 -29 25 -36 0 -23 -85 -212 -210 -469 -299 -614 -380 -852
-380 -1117 0 -136 19 -229 64 -323 58 -122 148 -201 286 -254 58 -22 79 -25
200 -25 104 1 152 6 212 22 259 70 474 205 718 451 163 163 276 303 415 511
165 248 385 649 385 701 0 12 -19 40 -42 64 -71 70 -207 108 -244 68 -9 -10
-56 -89 -105 -177 -209 -371 -448 -710 -649 -919 -77 -81 -184 -176 -151 -134
12 15 10 20 -15 46 -16 16 -40 43 -52 60 -32 42 -88 84 -102 76 -12 -8 3 -30
89 -132 l61 -73 -38 -25 c-20 -13 -52 -30 -70 -36 -31 -10 -36 -9 -63 17 -31
30 -39 22 -13 -14 15 -21 14 -22 -16 -22 -78 0 -120 56 -120 162 0 123 47 263
193 578 233 506 298 665 346 851 76 295 69 487 -25 678 -110 223 -307 341
-569 341 -176 0 -319 -33 -526 -121 l-116 -49 -66 44 c-65 44 -165 82 -287
111 -79 18 -216 19 -250 2z"/>
<path d="M3273 3468 c3 -9 11 -34 16 -55 11 -39 108 -168 180 -238 l41 -39 0
35 c0 30 -11 47 -68 110 -37 41 -80 92 -97 114 -38 53 -80 95 -72 73z"/>
<path d="M2260 3320 c-12 -8 -10 -14 15 -40 35 -36 45 -38 45 -6 0 52 -23 70
-60 46z"/>
<path d="M3310 3239 c0 -15 15 -49 33 -75 43 -65 168 -214 179 -214 4 0 8 12
8 27 0 24 -64 110 -184 248 -35 39 -35 40 -36 14z"/>
<path d="M2120 3195 c-16 -19 12 -67 90 -159 88 -105 79 -18 -10 94 -28 34
-50 66 -50 71 0 14 -16 11 -30 -6z"/>
<path d="M2246 3202 c-3 -5 15 -36 40 -68 24 -32 54 -74 65 -91 23 -37 31 -40
49 -18 10 13 6 22 -26 59 -22 24 -52 62 -67 85 -27 39 -50 51 -61 33z"/>
<path d="M3300 3079 c0 -21 16 -51 55 -102 133 -175 140 -181 161 -152 10 14
2 29 -49 94 -34 42 -82 103 -107 134 -25 31 -48 57 -52 57 -5 0 -8 -14 -8 -31z"/>
<path d="M2080 3061 c0 -39 138 -220 158 -207 20 12 13 37 -20 77 -18 21 -53
63 -78 93 -47 60 -60 67 -60 37z"/>
<path d="M1960 3007 c0 -7 38 -57 85 -111 47 -54 90 -108 96 -118 10 -19 12
-19 27 -5 26 27 12 48 -134 203 -40 43 -74 57 -74 31z"/>
<path d="M1901 2936 c-12 -14 13 -54 104 -169 51 -63 71 -39 28 33 -26 42
-108 149 -114 150 -4 0 -12 -6 -18 -14z"/>
<path d="M3276 2925 c-3 -9 25 -52 73 -112 130 -161 129 -160 141 -143 16 25
13 31 -61 125 -115 147 -138 167 -153 130z"/>
<path d="M1827 2853 c-13 -12 -7 -21 78 -118 47 -53 92 -106 100 -118 12 -17
17 -18 30 -7 8 7 15 16 15 21 0 28 -177 229 -201 229 -9 0 -19 -3 -22 -7z"/>
<path d="M3247 2814 c-17 -17 -3 -47 64 -135 96 -126 131 -162 141 -146 16 25
7 47 -40 99 -26 29 -60 69 -74 88 -55 72 -84 101 -91 94z"/>
<path d="M1765 2760 c-3 -5 0 -18 7 -28 29 -41 152 -182 157 -182 3 0 12 4 20
9 12 8 3 24 -42 83 -31 40 -67 85 -79 101 -24 27 -52 35 -63 17z"/>
<path d="M3202 2680 c-11 -30 -15 -23 108 -168 91 -107 109 -118 110 -70 0 9
-33 54 -72 100 -40 46 -87 101 -105 123 l-32 40 -9 -25z"/>
<path d="M1716 2673 c-18 -19 -2 -58 47 -111 28 -31 71 -79 93 -106 40 -47 42
-48 53 -27 10 19 6 28 -35 79 -74 90 -151 171 -158 165z"/>
<path d="M1634 2576 c-18 -14 -16 -17 42 -78 33 -34 81 -91 106 -125 45 -62
46 -62 61 -40 14 21 10 28 -82 139 -53 64 -99 117 -102 117 -3 1 -14 -5 -25
-13z"/>
<path d="M3217 2523 c-11 -17 6 -52 50 -108 22 -28 51 -68 66 -89 l26 -39 12
26 c11 23 9 31 -15 66 -48 69 -132 156 -139 144z"/>
<path d="M1605 2460 c-10 -15 110 -181 144 -200 53 -28 53 -1 1 65 -22 28 -57
71 -77 98 -36 46 -56 57 -68 37z"/>
<path d="M3146 2445 c9 -48 51 -123 102 -187 49 -60 62 -67 81 -44 10 11 2 27
-36 77 -26 35 -66 81 -89 104 -22 22 -46 49 -52 60 -11 18 -12 16 -6 -10z"/>
<path d="M4242 2428 c-18 -18 -15 -27 31 -83 23 -29 67 -85 97 -124 30 -39 58
-71 62 -71 3 0 9 9 13 19 6 21 -12 48 -122 189 -67 86 -66 85 -81 70z"/>
<path d="M1544 2366 c8 -31 26 -70 44 -92 17 -22 50 -63 73 -92 33 -43 43 -51
55 -41 20 16 18 27 -13 73 -30 44 -162 206 -168 206 -2 0 2 -24 9 -54z"/>
<path d="M3066 2348 c-4 -15 1 -32 14 -48 11 -14 34 -45 52 -70 18 -25 55 -73
82 -108 47 -59 51 -62 60 -42 6 14 6 27 0 35 -44 60 -195 255 -198 255 -2 0
-6 -10 -10 -22z"/>
<path d="M4180 2304 c0 -9 35 -59 78 -111 42 -53 84 -104 92 -115 18 -22 50
-15 50 11 0 9 -18 35 -41 56 -22 22 -56 63 -74 90 -19 28 -41 58 -48 68 -18
22 -57 23 -57 1z"/>
<path d="M1450 2284 c0 -8 167 -229 184 -243 10 -8 16 -8 25 3 10 12 -2 34
-69 121 -45 58 -90 110 -100 115 -21 11 -40 13 -40 4z"/>
<path d="M3014 2226 c-4 -9 12 -37 40 -71 25 -31 46 -61 46 -65 0 -13 99 -130
110 -130 5 0 12 9 15 21 5 14 -3 31 -30 62 -20 23 -60 76 -88 117 -52 74 -82
96 -93 66z"/>
<path d="M4135 2220 c-18 -20 -18 -21 5 -53 62 -84 165 -197 181 -197 37 0 28
23 -38 103 -38 45 -83 101 -100 124 -30 42 -31 42 -48 23z"/>
<path d="M1395 2199 c-5 -15 2 -32 22 -57 16 -21 37 -50 47 -67 43 -69 98
-125 122 -125 13 0 24 4 24 9 0 6 -21 36 -48 68 -26 32 -60 78 -76 103 -32 51
-66 90 -77 90 -4 0 -11 -9 -14 -21z"/>
<path d="M2965 2127 c-5 -18 9 -43 60 -113 74 -98 114 -144 127 -144 29 0 -33
118 -103 195 -32 36 -59 70 -59 75 0 20 -20 9 -25 -13z"/>
<path d="M4093 2086 c7 -41 39 -94 115 -183 46 -55 66 -64 76 -37 7 19 5 23
-52 85 -26 28 -51 59 -57 68 -5 10 -27 38 -49 62 l-39 44 6 -39z"/>
<path d="M1340 2095 c-9 -11 -3 -25 32 -69 23 -30 58 -76 76 -101 36 -50 48
-55 57 -26 7 22 -24 77 -82 149 -43 53 -67 67 -83 47z"/>
<path d="M2955 1994 c9 -48 16 -60 98 -157 58 -68 67 -75 76 -59 8 15 -5 38
-68 123 -42 57 -85 110 -95 118 -16 14 -17 12 -11 -25z"/>
<path d="M4012 2006 c-10 -22 -3 -33 89 -141 82 -95 103 -114 115 -104 8 6 14
15 14 20 0 7 -141 178 -199 242 -4 4 -13 -3 -19 -17z"/>
<path d="M1310 2001 c0 -37 21 -76 79 -141 31 -36 65 -76 75 -90 l18 -25 -5
40 c-3 29 -22 64 -72 130 -73 98 -95 118 -95 86z"/>
<path d="M1234 1905 c-4 -18 1 -33 20 -57 15 -18 54 -70 87 -116 47 -65 64
-83 81 -80 35 5 31 23 -17 79 -26 30 -54 67 -62 84 -19 36 -84 115 -95 115 -4
0 -10 -11 -14 -25z"/>
<path d="M2870 1915 c-11 -13 -9 -20 12 -43 14 -15 48 -61 77 -102 81 -118 99
-138 111 -120 17 26 11 44 -31 95 -22 27 -48 63 -56 80 -16 31 -82 105 -94
105 -4 0 -12 -7 -19 -15z"/>
<path d="M3945 1890 c3 -5 8 -10 11 -10 2 0 4 5 4 10 0 6 -5 10 -11 10 -5 0
-7 -4 -4 -10z"/>
<path d="M4040 1824 c1 -19 16 -48 43 -83 51 -65 72 -80 88 -64 13 13 -33 83
-95 142 l-36 35 0 -30z"/>
<path d="M2820 1810 c-10 -19 -7 -27 29 -68 22 -26 58 -73 78 -104 22 -34 44
-57 53 -55 31 5 20 39 -32 100 -30 34 -68 82 -85 105 -30 42 -32 43 -43 22z"/>
<path d="M3930 1802 c0 -16 14 -49 30 -73 17 -24 47 -68 66 -96 26 -39 42 -53
59 -53 13 0 26 4 29 9 8 12 -77 127 -104 141 -11 6 -29 28 -40 50 -26 51 -40
59 -40 22z"/>
<path d="M1187 1813 c-16 -15 -4 -42 41 -98 27 -33 72 -93 100 -134 48 -68 52
-72 60 -50 10 26 -4 51 -80 141 -25 29 -59 74 -77 101 -34 50 -34 50 -44 40z"/>
<path d="M3837 1723 c-12 -12 -8 -20 51 -90 31 -39 70 -87 85 -107 28 -36 47
-40 47 -9 0 15 -123 190 -145 205 -13 10 -30 10 -38 1z"/>
<path d="M1130 1660 c0 -6 33 -50 73 -98 40 -48 83 -104 96 -125 26 -43 37
-46 45 -13 7 29 -21 83 -47 92 -10 3 -30 24 -44 47 -42 68 -123 131 -123 97z"/>
<path d="M3826 1579 c7 -39 45 -109 69 -129 9 -8 25 -31 36 -53 17 -32 23 -36
35 -27 8 7 14 18 14 24 0 15 -71 117 -123 177 l-37 43 6 -35z"/>
<path d="M1086 1564 c-3 -9 -6 -19 -6 -24 0 -13 140 -180 151 -180 22 0 6 49
-31 95 -21 28 -52 67 -67 87 -31 42 -38 45 -47 22z"/>
<path d="M2734 1555 c-5 -19 3 -36 33 -74 21 -28 41 -50 46 -51 20 -1 3 58
-29 101 -20 27 -37 49 -40 49 -2 0 -6 -11 -10 -25z"/>
<path d="M3705 1540 c-5 -9 27 -55 147 -212 34 -44 37 -46 52 -29 9 10 16 22
16 27 0 5 -23 33 -50 63 -28 29 -57 66 -65 80 -12 24 -75 81 -89 81 -3 0 -8
-4 -11 -10z"/>
<path d="M1046 1454 c-10 -27 -8 -31 57 -106 34 -40 80 -95 101 -121 29 -36
41 -45 47 -35 16 24 9 43 -32 98 -40 54 -154 180 -163 180 -2 0 -7 -7 -10 -16z"/>
<path d="M3664 1391 c31 -32 51 -29 44 5 -2 13 -14 20 -38 22 l-35 4 29 -31z"/>
<path d="M3560 1373 c0 -5 41 -59 91 -120 86 -107 117 -131 134 -103 6 9 -99
151 -152 207 -20 21 -73 33 -73 16z"/>
<path d="M1000 1340 c-13 -24 -16 -19 70 -117 25 -28 63 -74 85 -102 44 -55
50 -59 59 -35 4 10 -6 33 -26 59 -170 225 -171 226 -188 195z"/>
<path d="M3783 1318 c4 -13 14 -42 24 -64 17 -38 17 -38 21 -12 3 28 -19 81
-39 94 -8 5 -10 0 -6 -18z"/>
<path d="M3526 1280 c7 -40 47 -105 103 -169 36 -41 39 -42 46 -22 7 23 -46
105 -119 186 l-37 40 7 -35z"/>
<path d="M955 1209 c-7 -22 -5 -25 82 -122 29 -32 64 -77 78 -102 16 -27 31
-42 40 -39 24 10 25 35 3 67 -34 50 -180 217 -189 217 -4 0 -11 -9 -14 -21z"/>
<path d="M3411 1217 c-8 -10 4 -29 52 -83 34 -38 77 -88 96 -111 48 -63 96
-56 53 8 -36 53 -166 199 -178 199 -6 0 -16 -6 -23 -13z"/>
<path d="M3360 1130 c0 -14 10 -41 23 -61 28 -45 129 -169 137 -169 3 0 14 6
23 13 15 11 8 22 -64 107 -44 52 -89 104 -99 115 -20 19 -20 19 -20 -5z"/>
<path d="M3280 1074 c0 -30 66 -142 127 -213 26 -30 31 -33 51 -22 19 10 21
15 10 29 -32 44 -130 170 -158 202 l-29 35 -1 -31z"/>
<path d="M910 1081 c0 -14 155 -207 181 -225 33 -23 44 -5 21 33 -39 65 -163
201 -183 201 -10 0 -19 -4 -19 -9z"/>
<path d="M3198 1015 c-8 -37 11 -75 78 -160 68 -86 82 -96 103 -71 9 11 -3 32
-56 101 -38 49 -80 102 -94 119 -24 27 -27 28 -31 11z"/>
<path d="M887 993 c-15 -14 -6 -46 25 -91 46 -67 158 -202 168 -202 5 0 12 9
15 21 5 15 -2 31 -24 57 -17 21 -63 79 -102 130 -39 50 -72 92 -73 92 -2 0 -6
-3 -9 -7z"/>
<path d="M3013 877 c3 -20 21 -57 39 -83 18 -26 44 -63 58 -83 19 -27 34 -37
58 -39 l33 -3 -30 48 c-16 26 -60 82 -97 123 l-67 74 6 -37z"/>
<path d="M3144 875 c-4 -8 0 -24 7 -34 8 -10 32 -44 54 -74 22 -31 43 -56 47
-57 19 -1 19 44 -1 69 -12 14 -36 45 -53 69 -34 45 -45 51 -54 27z"/>
<path d="M432 810 c24 -26 60 -69 81 -94 35 -42 112 -94 123 -83 3 3 -19 31
-49 63 -30 33 -61 73 -70 90 -12 23 -30 36 -72 51 l-56 21 43 -48z"/>
<path d="M875 830 c18 -87 104 -209 163 -231 47 -18 41 4 -20 77 -35 41 -83
101 -107 132 -43 56 -43 56 -36 22z"/>
<path d="M2906 853 c-14 -15 -3 -40 51 -111 32 -42 66 -85 75 -94 19 -19 68
-25 68 -9 0 5 -22 33 -48 63 -27 29 -57 67 -67 85 -20 35 -69 76 -79 66z"/>
<path d="M2760 814 c0 -3 25 -37 57 -75 40 -50 58 -66 64 -57 15 22 10 35 -31
87 -29 37 -47 51 -65 51 -14 0 -25 -2 -25 -6z"/>
<path d="M626 732 c73 -104 104 -136 146 -149 l38 -12 -44 58 c-24 31 -51 63
-60 70 -9 7 -16 19 -16 27 0 23 -44 62 -78 68 l-33 6 47 -68z"/>
<path d="M2656 792 c-5 -9 24 -48 117 -154 48 -55 65 -68 89 -68 l29 0 -33 47
c-18 26 -62 77 -97 115 -58 62 -92 81 -105 60z"/>
<path d="M747 761 c10 -16 48 -68 86 -115 58 -74 71 -86 98 -86 l30 0 -45 58
c-112 142 -141 172 -164 172 l-24 0 19 -29z"/>
<path d="M2402 744 c73 -103 140 -164 178 -164 15 0 -84 123 -137 170 -63 55
-83 52 -41 -6z"/>
<path d="M2527 765 c5 -8 35 -46 66 -84 41 -48 68 -72 88 -76 17 -4 33 -5 36
-2 8 9 -121 159 -145 168 -36 14 -54 11 -45 -6z"/>
<path d="M2960 654 c0 -15 37 -61 43 -54 3 3 -6 19 -19 35 -13 17 -24 25 -24
19z"/>
</g>
</svg>
